<?xml version="1.0" encoding="UTF-8"?>
<svg xmlns="http://www.w3.org/2000/svg" xmlns:xlink="http://www.w3.org/1999/xlink" viewBox="0 0 906.45 850.93">
  <defs>
    <style>
      .cls-1 {
        fill: url(#Degradado_sin_nombre_17);
      }

      .cls-1, .cls-2, .cls-3, .cls-4, .cls-5 {
        stroke-width: 0px;
      }

      .cls-2 {
        fill: url(#Degradado_sin_nombre_17-3);
      }

      .cls-6 {
        isolation: isolate;
      }

      .cls-3 {
        fill: url(#Degradado_sin_nombre_17-2);
      }

      .cls-4 {
        fill: url(#linear-gradient);
      }

      .cls-4, .cls-5 {
        mix-blend-mode: multiply;
      }

      .cls-5 {
        fill: url(#linear-gradient-2);
      }
    </style>
    <linearGradient id="Degradado_sin_nombre_17" data-name="Degradado sin nombre 17" x1="78.31" y1="66.64" x2="809.48" y2="797.81" gradientUnits="userSpaceOnUse">
      <stop offset="0" stop-color="#55d3c2"/>
      <stop offset="1" stop-color="#0f1626"/>
    </linearGradient>
    <linearGradient id="Degradado_sin_nombre_17-2" data-name="Degradado sin nombre 17" x1="124.91" y1="20.04" x2="856.08" y2="751.21" xlink:href="#Degradado_sin_nombre_17"/>
    <linearGradient id="Degradado_sin_nombre_17-3" data-name="Degradado sin nombre 17" x1="328.26" y1="-183.31" x2="1059.42" y2="547.86" xlink:href="#Degradado_sin_nombre_17"/>
    <linearGradient id="linear-gradient" x1="177.23" y1="796.8" x2="411.23" y2="796.8" gradientUnits="userSpaceOnUse">
      <stop offset="0" stop-color="#fff"/>
      <stop offset="1" stop-color="#272525"/>
    </linearGradient>
    <linearGradient id="linear-gradient-2" x1="553.93" y1="455.11" x2="553.93" y2="237.33" xlink:href="#linear-gradient"/>
  </defs>
  <g class="cls-6">
    <g id="Object">
      <g>
        <g>
          <path class="cls-1" d="M502.18,843.32c-160.43,0-281.42-127.52-281.42-296.62,0-19.98,16.2-36.18,36.18-36.18s36.18,16.2,36.18,36.18c0,127.85,89.88,224.26,209.06,224.26,87.08,0,188.78-58.73,188.78-224.26v-248.99c0-19.98,16.2-36.18,36.18-36.18s36.18,16.2,36.18,36.18v248.99c0,174.64-107.38,296.62-261.14,296.62Z"/>
          <path class="cls-3" d="M870.26.29h-314.79c-19.91,0-36.08,16.08-36.18,36l-2.53,515.02c0,127.44-95.38,227.27-217.14,227.27-113.29,0-207.47-83.32-224.52-191.9l182.59-3.8c19.98-.42,35.83-16.95,35.42-36.93-.41-19.72-16.53-35.43-36.16-35.43-.25,0-.51,0-.77,0l-220.76,4.6c-19.68.41-35.43,16.48-35.43,36.17,0,165.21,134.41,299.63,299.62,299.63s289.49-131.61,289.49-299.45l2.36-478.84h278.79c19.98,0,36.18-16.19,36.18-36.17S890.24.29,870.26.29Z"/>
          <path class="cls-2" d="M555.56,249.55c-142.44,0-271.7-72.74-345.79-194.57-10.38-17.07-4.96-39.33,12.11-49.71,17.06-10.38,39.33-4.96,49.71,12.11,60.85,100.06,167.01,159.8,283.96,159.8s222.94-59.64,283.81-159.55c10.4-17.06,32.66-22.46,49.72-12.07,17.07,10.4,22.47,32.66,12.07,49.72-74.12,121.64-203.31,194.26-345.6,194.26Z"/>
        </g>
        <path class="cls-4" d="M299.62,778.58c-45.04,0-87.04-13.21-122.39-35.9v82.01c37.4,16.81,78.8,26.25,122.39,26.25,39.77,0,77.41-7.94,111.61-22.34-33.44-11.27-63.79-28.63-89.91-51.11-7.13.71-14.37,1.09-21.7,1.09Z"/>
        <path class="cls-5" d="M590.61,248.02c-11.58.98-23.27,1.53-35.06,1.53-12.55,0-24.99-.59-37.3-1.71l-1,202.64h72.36l1-202.46Z"/>
      </g>
    </g>
  </g>
</svg>